#!OML:ASF H:\Terrain\Patient Classification 1\Terrain2\Thursday\justin.ASF
:FULLY-SPECIFIED
:DEGREES
3863
root -1.39665 23.8336 -4.2343 902.247 -173.974 -182.253
lowerback 9.03667 0.212009 -0.0329922
upperback 2.05917 0.34416 2.0706
thorax -2.94331 0.173191 2.12323
lowerneck -14.0307 0.364358 -8.02558
upperneck 38.8719 2.19609 2.29403
head 16.125 0.0225088 2.81012
rclavicle 9.59136e-015 5.96354e-015
rhumerus -27.9372 -4.46522 -82.9502
rradius 36.6861
rwrist -12.4845
rhand -22.7877 12.7518
rfingers 7.12502
rthumb 3.64814 -17.1968
lclavicle 9.59136e-015 5.96354e-015
lhumerus -29.1037 8.39738 79.1833
lradius 37.1104
lwrist 10.9213
lhand -18.722 20.6361
lfingers 7.12502
lthumb 7.57352 50.4805
rfemur -21.5762 -6.59845 22.3141
rtibia 49.03
rfoot -21.9619 0.179172
rtoes -3.24255
lfemur -16.6151 1.55688 -17.9049
ltibia 26.8729
lfoot -8.95769 -8.3172
ltoes 7.93692
3864
root -1.407 23.8232 -4.18819 902.288 -174.107 -182.1
lowerback 8.9568 0.174265 -0.21781
upperback 1.97804 0.277754 2.0692
thorax -2.98141 0.142288 2.23371
lowerneck -13.8359 0.356067 -7.95481
upperneck 38.7766 2.18852 2.16184
head 16.0328 0.0162422 2.73183
rclavicle 4.96962e-016 1.90833e-014
rhumerus -28.0079 -4.76423 -82.8031
rradius 36.6375
rwrist -12.3142
rhand -22.6729 12.2722
rfingers 7.12502
rthumb 3.75901 -17.6744
lclavicle 4.96962e-016 1.90833e-014
lhumerus -29.0068 8.33992 79.2106
lradius 37.1366
lwrist 11.1417
lhand -19.3383 21.4028
lfingers 7.12502
lthumb 6.97861 51.2677
rfemur -21.7646 -6.18134 22.1382
rtibia 47.564
rfoot -22.4921 1.00842
rtoes -4.21004
lfemur -16.6865 1.77718 -18.0725
ltibia 27.1955
lfoot -9.30191 -8.71102
ltoes 7.45292
3865
root -1.41793 23.8176 -4.14594 902.438 -174.154 -182.386
lowerback 8.83252 0.161864 0.0837358
upperback 1.87818 0.292256 2.14619
thorax -3.01549 0.148169 2.14187
lowerneck -13.625 0.336798 -7.80818
upperneck 38.6671 2.14055 2.02502
head 15.9328 0.00429099 2.63126
rclavicle -7.70291e-015 1.11319e-014
rhumerus -27.9828 -5.17434 -82.6907
rradius 36.2996
rwrist -12.0763
rhand -22.6785 12.642
rfingers 7.12502
rthumb 3.75359 -17.3047
lclavicle -7.70291e-015 1.11319e-014
lhumerus -28.8692 8.15961 79.2281
lradius 37.0774
lwrist 11.1168
lhand -20.042 21.9572
lfingers 7.12502
lthumb 6.29926 51.8436
rfemur -21.9508 -5.48272 22.4348
rtibia 46.0362
rfoot -22.8372 1.46361
rtoes -5.31651
lfemur -16.787 1.86786 -17.7061
ltibia 27.45
lfoot -9.57191 -8.98954
ltoes 7.62651
3866
root -1.4304 23.812 -4.10064 902.438 -174.207 -182.611
lowerback 8.81645 0.122305 0.270285
upperback 1.86684 0.260134 2.24556
thorax -3.01682 0.13101 2.14346
lowerneck -13.6235 0.310093 -7.84522
upperneck 38.6795 2.10664 2.03471
head 15.941 -0.0147614 2.63671
rclavicle 3.42904e-015 1.63003e-014
rhumerus -27.7302 -5.40067 -82.596
rradius 35.8036
rwrist -11.9001
rhand -22.6729 13.3105
rfingers 7.12502
rthumb 3.759 -16.6361
lclavicle 3.42904e-015 1.63003e-014
lhumerus -28.811 8.13084 79.254
lradius 37.1959
lwrist 11.0429
lhand -19.6621 21.2961
lfingers 7.12502
lthumb 6.66602 51.1712
rfemur -21.8764 -4.76612 22.614
rtibia 44.5078
rfoot -22.7211 2.08761
rtoes -5.86254
lfemur -16.7041 1.89149 -17.4057
ltibia 27.6703
lfoot -9.75787 -9.1626
ltoes 7.44521
3867
root -1.44814 23.8042 -4.05491 902.307 -174.365 -182.54
lowerback 8.86537 0.0719098 0.185219
upperback 1.93051 0.183832 2.21684
thorax -2.97543 0.0931976 2.17017
lowerneck -13.7838 0.293101 -7.87365
upperneck 38.7884 2.06369 2.15101
head 16.0358 -0.0260893 2.69136
rclavicle -3.42904e-015 3.45885e-014
rhumerus -27.5262 -5.62048 -82.6084
rradius 35.6037
rwrist -11.8549
rhand -22.7138 13.3673
rfingers 7.12502
rthumb 3.71952 -16.5799
lclavicle -3.42904e-015 3.45885e-014
lhumerus -28.5691 8.08022 79.2483
lradius 37.1859
lwrist 11.0531
lhand -19.1387 20.7705
lfingers 7.12502
lthumb 7.17127 50.629
rfemur -21.6586 -4.03042 22.4515
rtibia 43.0458
rfoot -22.6075 2.5625
rtoes -7.35145
lfemur -16.5436 2.11385 -17.4542
ltibia 27.8934
lfoot -10.0535 -9.51376
ltoes 6.28999
